<svg class="h-6 text-black dark:text-white" xmlns="http://www.w3.org/2000/svg" fill="none" viewBox="0 0 24.272000000000002 24.14814814814815" style="max-height: 500px" width="24.272000000000002" height="24.14814814814815"><path fill="#836EF9" d="M0 6C0 2.68629 2.68629 0 6 0H18C21.3137 0 24 2.68629 24 6V18C24 21.3137 21.3137 24 18 24H6C2.68629 24 0 21.3137 0 18V6Z"/><path fill="white" d="M6.99748 5.28362L6.99748 11.0148L8.71768 12.0008L6.99731 12.987L6.99731 18.7182L11.9972 21.584L16.9971 18.7182L16.9971 12.9866L15.2769 12.0007L16.9973 11.0147L16.9973 5.28308L11.997 2.41732L6.99748 5.28362ZM11.6464 3.42366L11.6464 7.94789L7.69961 10.2105L7.69961 5.68623L11.6464 3.42366ZM12.3482 20.5781L12.3482 16.0535L16.2954 13.7912L16.2954 18.3159L12.3482 20.5781ZM15.9441 13.1879L11.9973 15.4501L8.05048 13.1879L9.41994 12.4031L11.9973 13.8803L14.575 12.4031L15.9441 13.1879ZM11.9973 10.1208L9.41964 11.5982L8.05048 10.8134L11.9973 8.55113L15.9445 10.8134L14.575 11.5982L11.9973 10.1208Z"/><path fill="currentColor" d="M140.907 8.4082C141.846 8.4082 142.682 8.59154 143.415 8.9582C144.163 9.32487 144.75 9.88954 145.175 10.6522C145.6 11.4002 145.813 12.3682 145.813 13.5562V20.2882H143.063V13.9082C143.063 12.8669 142.814 12.0895 142.315 11.5762C141.831 11.0629 141.149 10.8062 140.269 10.8062C139.624 10.8062 139.052 10.9382 138.553 11.2022C138.054 11.4662 137.666 11.8622 137.387 12.3902C137.123 12.9035 136.991 13.5562 136.991 14.3482V20.2882H134.241V8.5402H136.859V11.7082L136.397 10.7402C136.808 9.9922 137.402 9.4202 138.179 9.0242C138.971 8.61354 139.88 8.4082 140.907 8.4082Z"/><path fill="currentColor" d="M125.451 20.4422C124.249 20.4422 123.178 20.1855 122.239 19.6722C121.301 19.1442 120.56 18.4255 120.017 17.5162C119.475 16.6069 119.203 15.5729 119.203 14.4142C119.203 13.2409 119.475 12.2069 120.017 11.3122C120.56 10.4029 121.301 9.69154 122.239 9.1782C123.178 8.66487 124.249 8.4082 125.451 8.4082C126.669 8.4082 127.747 8.66487 128.685 9.1782C129.639 9.69154 130.379 10.3955 130.907 11.2902C131.45 12.1849 131.721 13.2262 131.721 14.4142C131.721 15.5729 131.45 16.6069 130.907 17.5162C130.379 18.4255 129.639 19.1442 128.685 19.6722C127.747 20.1855 126.669 20.4422 125.451 20.4422ZM125.451 18.0882C126.126 18.0882 126.727 17.9415 127.255 17.6482C127.783 17.3549 128.194 16.9295 128.487 16.3722C128.795 15.8149 128.949 15.1622 128.949 14.4142C128.949 13.6515 128.795 12.9989 128.487 12.4562C128.194 11.8989 127.783 11.4735 127.255 11.1802C126.727 10.8869 126.133 10.7402 125.473 10.7402C124.799 10.7402 124.197 10.8869 123.669 11.1802C123.156 11.4735 122.745 11.8989 122.437 12.4562C122.129 12.9989 121.975 13.6515 121.975 14.4142C121.975 15.1622 122.129 15.8149 122.437 16.3722C122.745 16.9295 123.156 17.3549 123.669 17.6482C124.197 17.9415 124.791 18.0882 125.451 18.0882Z"/><path fill="currentColor" d="M113.922 20.2877V8.53971H116.672V20.2877H113.922ZM115.308 6.60371C114.795 6.60371 114.369 6.44238 114.032 6.11971C113.709 5.79704 113.548 5.40838 113.548 4.95371C113.548 4.48438 113.709 4.09571 114.032 3.78771C114.369 3.46504 114.795 3.30371 115.308 3.30371C115.821 3.30371 116.239 3.45771 116.562 3.76571C116.899 4.05904 117.068 4.43304 117.068 4.88771C117.068 5.37171 116.907 5.78238 116.584 6.11971C116.261 6.44238 115.836 6.60371 115.308 6.60371Z"/><path fill="currentColor" d="M106.34 20.4422C105.357 20.4422 104.411 20.3175 103.502 20.0682C102.607 19.8042 101.896 19.4889 101.368 19.1222L102.424 17.0322C102.952 17.3695 103.582 17.6482 104.316 17.8682C105.049 18.0882 105.782 18.1982 106.516 18.1982C107.381 18.1982 108.004 18.0809 108.386 17.8462C108.782 17.6115 108.98 17.2962 108.98 16.9002C108.98 16.5775 108.848 16.3355 108.584 16.1742C108.32 15.9982 107.975 15.8662 107.55 15.7782C107.124 15.6902 106.648 15.6095 106.12 15.5362C105.606 15.4629 105.086 15.3675 104.558 15.2502C104.044 15.1182 103.575 14.9349 103.15 14.7002C102.724 14.4509 102.38 14.1209 102.116 13.7102C101.852 13.2995 101.72 12.7569 101.72 12.0822C101.72 11.3342 101.932 10.6889 102.358 10.1462C102.783 9.58887 103.377 9.16354 104.14 8.8702C104.917 8.5622 105.834 8.4082 106.89 8.4082C107.682 8.4082 108.481 8.4962 109.288 8.6722C110.094 8.8482 110.762 9.09754 111.29 9.4202L110.234 11.5102C109.676 11.1729 109.112 10.9455 108.54 10.8282C107.982 10.6962 107.425 10.6302 106.868 10.6302C106.032 10.6302 105.408 10.7549 104.998 11.0042C104.602 11.2535 104.404 11.5689 104.404 11.9502C104.404 12.3022 104.536 12.5662 104.8 12.7422C105.064 12.9182 105.408 13.0575 105.834 13.1602C106.259 13.2629 106.728 13.3509 107.242 13.4242C107.77 13.4829 108.29 13.5782 108.804 13.7102C109.317 13.8422 109.786 14.0255 110.212 14.2602C110.652 14.4802 111.004 14.7955 111.268 15.2062C111.532 15.6169 111.664 16.1522 111.664 16.8122C111.664 17.5455 111.444 18.1835 111.004 18.7262C110.578 19.2689 109.97 19.6942 109.178 20.0022C108.386 20.2955 107.44 20.4422 106.34 20.4422Z"/><path fill="currentColor" d="M96.4604 20.2877V8.53971H99.2104V20.2877H96.4604ZM97.8464 6.60371C97.3331 6.60371 96.9078 6.44238 96.5704 6.11971C96.2478 5.79704 96.0864 5.40838 96.0864 4.95371C96.0864 4.48438 96.2478 4.09571 96.5704 3.78771C96.9078 3.46504 97.3331 3.30371 97.8464 3.30371C98.3598 3.30371 98.7778 3.45771 99.1004 3.76571C99.4378 4.05904 99.6064 4.43304 99.6064 4.88771C99.6064 5.37171 99.4451 5.78238 99.1224 6.11971C98.7998 6.44238 98.3744 6.60371 97.8464 6.60371Z"/><path fill="currentColor" d="M85.5759 20.2877L78.8439 4.8877H81.9459L87.9519 18.8137H86.1699L92.2419 4.8877H95.1019L88.3919 20.2877H85.5759Z"/><path fill="currentColor" d="M72.4734 8.4082C73.412 8.4082 74.248 8.59154 74.9814 8.9582C75.7294 9.32487 76.316 9.88954 76.7414 10.6522C77.1667 11.4002 77.3794 12.3682 77.3794 13.5562V20.2882H74.6294V13.9082C74.6294 12.8669 74.38 12.0895 73.8814 11.5762C73.3974 11.0629 72.7154 10.8062 71.8354 10.8062C71.19 10.8062 70.618 10.9382 70.1194 11.2022C69.6207 11.4662 69.232 11.8622 68.9534 12.3902C68.6894 12.9035 68.5574 13.5562 68.5574 14.3482V20.2882H65.8074V8.5402H68.4254V11.7082L67.9634 10.7402C68.374 9.9922 68.968 9.4202 69.7454 9.0242C70.5374 8.61354 71.4467 8.4082 72.4734 8.4082Z"/><path fill="currentColor" d="M57.0177 20.4422C55.815 20.4422 54.7443 20.1855 53.8057 19.6722C52.867 19.1442 52.1263 18.4255 51.5837 17.5162C51.041 16.6069 50.7697 15.5729 50.7697 14.4142C50.7697 13.2409 51.041 12.2069 51.5837 11.3122C52.1263 10.4029 52.867 9.69154 53.8057 9.1782C54.7443 8.66487 55.815 8.4082 57.0177 8.4082C58.235 8.4082 59.313 8.66487 60.2517 9.1782C61.205 9.69154 61.9457 10.3955 62.4737 11.2902C63.0163 12.1849 63.2877 13.2262 63.2877 14.4142C63.2877 15.5729 63.0163 16.6069 62.4737 17.5162C61.9457 18.4255 61.205 19.1442 60.2517 19.6722C59.313 20.1855 58.235 20.4422 57.0177 20.4422ZM57.0177 18.0882C57.6923 18.0882 58.2937 17.9415 58.8217 17.6482C59.3497 17.3549 59.7603 16.9295 60.0537 16.3722C60.3617 15.8149 60.5157 15.1622 60.5157 14.4142C60.5157 13.6515 60.3617 12.9989 60.0537 12.4562C59.7603 11.8989 59.3497 11.4735 58.8217 11.1802C58.2937 10.8869 57.6997 10.7402 57.0397 10.7402C56.365 10.7402 55.7637 10.8869 55.2357 11.1802C54.7223 11.4735 54.3117 11.8989 54.0037 12.4562C53.6957 12.9989 53.5417 13.6515 53.5417 14.4142C53.5417 15.1622 53.6957 15.8149 54.0037 16.3722C54.3117 16.9295 54.7223 17.3549 55.2357 17.6482C55.7637 17.9415 56.3577 18.0882 57.0177 18.0882Z"/><path fill="currentColor" d="M31.1 20.2877V4.8877H33.454L40.186 16.1297H38.954L45.576 4.8877H47.93L47.952 20.2877H45.246L45.224 9.1337H45.796L40.164 18.5277H38.888L33.168 9.1337H33.828V20.2877H31.1Z"/></svg>